<svg class="logo" viewBox="0 0 0 0" version="1.1" xmlns="http://www.w3.org/2000/svg" xmlns:xlink="http://www.w3.org/1999/xlink">
  <g id="logo" transform="translate(-113.000000, -89.000000)">
      <path fill="#" d="M27.8515625,42.25q0,2.3515625-1.6337890625,3.58203125t-4.8876953125,1.23046875q-1.66796875,0-2.84375-0.2255859375t-2.201171875-0.6630859375l0-3.4453125q1.162109375,0.546875,2.6181640625,0.916015625t2.5634765625,0.369140625q2.26953125,0,2.26953125-1.3125q0-0.4921875-0.30078125-0.7998046875t-1.0390625-0.697265625t-1.96875-0.9091796875q-1.763671875-0.73828125-2.5908203125-1.3671875t-1.203125-1.4423828125t-0.3759765625-2.0029296875q0-2.037109375,1.5791015625-3.1513671875t4.4775390625-1.1142578125q2.76171875,0,5.373046875,1.203125l-1.2578125,3.0078125q-1.1484375-0.4921875-2.146484375-0.806640625t-2.037109375-0.314453125q-1.845703125,0-1.845703125,0.998046875q0,0.560546875,0.5947265625,0.970703125t2.6044921875,1.216796875q1.791015625,0.724609375,2.625,1.353515625t1.23046875,1.44921875t0.396484375,1.955078125z M46.33279296875,31.50390625l0,2.119140625l-2.392578125,0.615234375q0.65625,1.025390625,0.65625,2.296875q0,2.4609375-1.7158203125,3.8349609375t-4.7646484375,1.3740234375l-0.751953125-0.041015625l-0.615234375-0.068359375q-0.642578125,0.4921875-0.642578125,1.09375q0,0.90234375,2.296875,0.90234375l2.59765625,0q2.515625,0,3.8349609375,1.080078125t1.3193359375,3.171875q0,2.6796875-2.2353515625,4.15625t-6.4189453125,1.4765625q-3.19921875,0-4.8876953125-1.1142578125t-1.6884765625-3.1240234375q0-1.380859375,0.861328125-2.310546875t2.529296875-1.326171875q-0.642578125-0.2734375-1.12109375-0.8955078125t-0.478515625-1.3193359375q0-0.875,0.505859375-1.4560546875t1.462890625-1.1416015625q-1.203125-0.51953125-1.9072265625-1.66796875t-0.7041015625-2.70703125q0-2.501953125,1.626953125-3.869140625t4.6484375-1.3671875q0.642578125,0,1.5244140625,0.1162109375t1.1279296875,0.1708984375l5.33203125,0z M34.53396484375,48.94921875q0,0.861328125,0.8271484375,1.353515625t2.3173828125,0.4921875q2.2421875,0,3.513671875-0.615234375t1.271484375-1.681640625q0-0.861328125-0.751953125-1.189453125t-2.32421875-0.328125l-2.16015625,0q-1.1484375,0-1.9208984375,0.5400390625t-0.7724609375,1.4287109375z M36.05154296875,36.5078125q0,1.244140625,0.5673828125,1.96875t1.7294921875,0.724609375q1.17578125,0,1.72265625-0.724609375t0.546875-1.96875q0-2.76171875-2.26953125-2.76171875q-2.296875,0-2.296875,2.76171875z M60.4800390625,46.7890625l-0.806640625-2.078125l-0.109375,0q-1.052734375,1.326171875-2.1669921875,1.8388671875t-2.9052734375,0.5126953125q-2.201171875,0-3.4658203125-1.2578125t-1.2646484375-3.58203125q0-2.43359375,1.7021484375-3.5888671875t5.1337890625-1.2783203125l2.65234375-0.08203125l0-0.669921875q0-2.32421875-2.37890625-2.32421875q-1.83203125,0-4.306640625,1.107421875l-1.380859375-2.81640625q2.638671875-1.380859375,5.8515625-1.380859375q3.076171875,0,4.716796875,1.33984375t1.640625,4.07421875l0,10.185546875l-2.912109375,0z M59.2495703125,39.70703125l-1.61328125,0.0546875q-1.818359375,0.0546875-2.70703125,0.65625t-0.888671875,1.83203125q0,1.763671875,2.0234375,1.763671875q1.44921875,0,2.3173828125-0.833984375t0.8681640625-2.21484375l0-1.2578125z M83.71908203125,46.7890625l-4.169921875,0l0-8.927734375q0-1.654296875-0.587890625-2.4814453125t-1.873046875-0.8271484375q-1.75,0-2.529296875,1.1689453125t-0.779296875,3.8759765625l0,7.19140625l-4.169921875,0l0-15.28515625l3.185546875,0l0.560546875,1.955078125l0.232421875,0q0.697265625-1.107421875,1.9208984375-1.6748046875t2.7822265625-0.5673828125q2.666015625,0,4.046875,1.4423828125t1.380859375,4.1630859375l0,9.966796875z M99.643671875,46.7890625l-0.806640625-2.078125l-0.109375,0q-1.052734375,1.326171875-2.1669921875,1.8388671875t-2.9052734375,0.5126953125q-2.201171875,0-3.4658203125-1.2578125t-1.2646484375-3.58203125q0-2.43359375,1.7021484375-3.5888671875t5.1337890625-1.2783203125l2.65234375-0.08203125l0-0.669921875q0-2.32421875-2.37890625-2.32421875q-1.83203125,0-4.306640625,1.107421875l-1.380859375-2.81640625q2.638671875-1.380859375,5.8515625-1.380859375q3.076171875,0,4.716796875,1.33984375t1.640625,4.07421875l0,10.185546875l-2.912109375,0z M98.413203125,39.70703125l-1.61328125,0.0546875q-1.818359375,0.0546875-2.70703125,0.65625t-0.888671875,1.83203125q0,1.763671875,2.0234375,1.763671875q1.44921875,0,2.3173828125-0.833984375t0.8681640625-2.21484375l0-1.2578125z M114.98037109375,47.0625q-7.13671875,0-7.13671875-7.833984375q0-3.896484375,1.94140625-5.9541015625t5.564453125-2.0576171875q2.65234375,0,4.7578125,1.0390625l-1.23046875,3.2265625q-0.984375-0.396484375-1.83203125-0.6494140625t-1.6953125-0.2529296875q-3.25390625,0-3.25390625,4.62109375q0,4.484375,3.25390625,4.484375q1.203125,0,2.228515625-0.3212890625t2.05078125-1.0048828125l0,3.568359375q-1.01171875,0.642578125-2.0439453125,0.888671875t-2.6044921875,0.24609375z M139.2037890625,46.7890625l-4.169921875,0l0-8.927734375q0-3.30859375-2.4609375-3.30859375q-1.75,0-2.529296875,1.189453125t-0.779296875,3.85546875l0,7.19140625l-4.169921875,0l0-21.2734375l4.169921875,0l0,4.333984375q0,0.505859375-0.095703125,2.37890625l-0.095703125,1.23046875l0.21875,0q1.39453125-2.2421875,4.4296875-2.2421875q2.693359375,0,4.087890625,1.44921875t1.39453125,4.15625l0,9.966796875z M155.12837890625,46.7890625l-0.806640625-2.078125l-0.109375,0q-1.052734375,1.326171875-2.1669921875,1.8388671875t-2.9052734375,0.5126953125q-2.201171875,0-3.4658203125-1.2578125t-1.2646484375-3.58203125q0-2.43359375,1.7021484375-3.5888671875t5.1337890625-1.2783203125l2.65234375-0.08203125l0-0.669921875q0-2.32421875-2.37890625-2.32421875q-1.83203125,0-4.306640625,1.107421875l-1.380859375-2.81640625q2.638671875-1.380859375,5.8515625-1.380859375q3.076171875,0,4.716796875,1.33984375t1.640625,4.07421875l0,10.185546875l-2.912109375,0z M153.89791015625,39.70703125l-1.61328125,0.0546875q-1.818359375,0.0546875-2.70703125,0.65625t-0.888671875,1.83203125q0,1.763671875,2.0234375,1.763671875q1.44921875,0,2.3173828125-0.833984375t0.8681640625-2.21484375l0-1.2578125z M172.789296875,31.216796875q0.84765625,0,1.408203125,0.123046875l-0.314453125,3.91015625q-0.505859375-0.13671875-1.23046875-0.13671875q-1.99609375,0-3.1103515625,1.025390625t-1.1142578125,2.87109375l0,7.779296875l-4.169921875,0l0-15.28515625l3.158203125,0l0.615234375,2.5703125l0.205078125,0q0.7109375-1.28515625,1.9208984375-2.0712890625t2.6318359375-0.7861328125z M178.71974609375,27.552734375q0-2.037109375,2.26953125-2.037109375t2.26953125,2.037109375q0,0.970703125-0.5673828125,1.5107421875t-1.7021484375,0.5400390625q-2.26953125,0-2.26953125-2.05078125z M183.06740234375,46.7890625l-4.169921875,0l0-15.28515625l4.169921875,0l0,15.28515625z" id="Sleek"></path>      
  </g>
</svg>
