<svg class="logo" viewBox="0 0 47 15" version="1.1" xmlns="http://www.w3.org/2000/svg" xmlns:xlink="http://www.w3.org/1999/xlink">
  <g id="logo" transform="translate(-113.000000, -89.000000)">
      <path d="M 319.5 1.1 L 319 14.7 L 318.7 31.1 L 329.8 24.3 L 340 23.6 L 349.2 29.9 L 350.7 37.9 L 350.5 59 L 351.3 70.7 L 358.4 72.6 L 357.9 76.1 L 346.1 75.6 L 333.9 76.1 L 334.1 72.6 L 340.7 70.6 L 341.4 60.1 L 341 38.3 L 338.3 31.7 L 329.8 30.2 L 318.6 35.9 L 318.4 49.3 L 318.6 59 L 318.9 70.6 L 326.2 72.6 L 325.7 76.1 L 313.9 75.6 L 301.7 76.1 L 301.9 72.6 L 308.5 70.6 L 309.4 60.1 L 309 16.3 L 308.3 5.9 L 301.2 6.2 L 300.7 2.7 L 314.5 0 L 319.5 1.1 Z M 193.6 59 L 194.4 70.7 L 201.5 72.6 L 201 76.1 L 189.2 75.6 L 177 76.1 L 177.2 72.6 L 183.8 70.6 L 184.5 60.1 L 184.1 38.3 L 181.4 31.7 L 172.9 30.2 L 162 35.8 L 161.8 39.3 L 161.2 49.3 L 161.4 59 L 161.9 70.6 L 169.2 72.6 L 168.7 76.1 L 156.9 75.6 L 144.7 76.1 L 144.9 72.6 L 151.5 70.6 L 152.2 60.1 L 151.3 30.5 L 144.2 30.8 L 143.7 27.3 L 157.5 24.6 L 162.5 25.7 L 162.2 30.8 L 172.9 24.3 L 183.1 23.6 L 192.3 29.9 L 193.8 37.9 L 193.6 59 Z M 76.1 26.6 L 88.9 18.2 L 92.1 24.9 L 87.9 27.5 L 79.6 28.6 L 86.6 37.2 L 86.5 46.9 L 80.9 55.2 L 68.7 59.2 L 58.1 57.7 L 56.3 60.3 L 55.9 63.1 L 58.7 64.9 L 75.9 67.6 L 82.6 69.1 L 89.3 73.9 L 90.1 85.8 L 85.5 92.7 L 74.3 97.8 L 58.5 98.3 L 51.6 96.2 L 45.9 91.2 L 43.8 84 L 46.8 75.3 L 53.6 72.1 L 50 68.7 L 50 61.8 L 54.5 56.5 L 46 49.9 L 45 37.2 L 53.3 27.6 L 66 24.6 L 76.1 26.6 Z M 6.8 60.6 L 7.6 71.7 L 15.9 73 L 25.2 71.7 L 27.4 64.9 L 24.7 59.7 L 6.1 48.4 L 2.1 42.1 L 1.9 31.5 L 9 25.5 L 19.5 23.6 L 34.2 26.6 L 32.1 41.3 L 27.9 39.9 L 26 29.5 L 19.1 28.2 L 11.6 29.9 L 9.7 35.4 L 12.1 41.3 L 31.3 52.3 L 36 58.2 L 36.4 67.6 L 29.6 75.6 L 17.6 77.6 L 9.3 77.2 L 0 73.6 L 2.5 59.2 L 6.8 60.6 Z M 133.1 36 L 133.2 57.4 L 133.9 71.5 L 140.8 72.5 L 140.1 75.8 L 126.2 77 L 124.9 71.1 L 124.4 71.1 L 114.5 77 L 104.1 77 L 97.1 71.9 L 95 62.1 L 99.4 54.3 L 111.4 49.1 L 124.6 48.6 L 124.2 36.1 L 122.3 29.9 L 114.2 27.6 L 104.5 29.9 L 104.2 40.5 L 100.3 41.3 L 97.7 27.6 L 109.2 24.2 L 122.1 23.6 L 129.9 27.4 L 133.1 36 Z M 243 36 L 243.1 57.4 L 243.8 71.5 L 250.7 72.5 L 250 75.8 L 236.1 77 L 234.8 71.1 L 234.3 71.1 L 224.4 77 L 214 77 L 207 71.9 L 204.9 62.1 L 209.3 54.3 L 221.3 49.1 L 234.5 48.6 L 234.1 36.1 L 232.2 29.9 L 224.1 27.6 L 214.4 29.9 L 214.1 40.5 L 210.2 41.3 L 207.6 27.6 L 219.1 24.2 L 232 23.6 L 239.8 27.4 L 243 36 Z M 400.8 36 L 400.9 57.4 L 401.6 71.5 L 408.5 72.5 L 407.8 75.8 L 393.9 77 L 392.6 71.1 L 392.1 71.1 L 382.2 77 L 371.8 77 L 364.8 71.9 L 362.7 62.1 L 367.1 54.3 L 379.1 49.1 L 392.3 48.6 L 391.9 36.1 L 390 29.9 L 381.9 27.6 L 372.2 29.9 L 371.9 40.5 L 368 41.3 L 365.4 27.6 L 376.9 24.2 L 389.8 23.6 L 397.6 27.4 L 400.8 36 Z M 291.4 41.8 L 289.6 29.3 L 277 28.3 L 268 37.9 L 265.4 48.3 L 266.7 58.9 L 273.1 70.5 L 285.4 72.5 L 294.8 67.5 L 296.6 70.1 L 288.7 76.4 L 279.3 77.6 L 265 73.5 L 256.1 59 L 256 42.3 L 262.8 30.4 L 273.3 24.9 L 282.4 23.6 L 297.7 25.6 L 294.7 41.3 L 291.4 41.8 Z M 430.2 25.7 L 429.8 33.8 L 430.2 33.8 L 436.4 26.7 L 443.2 23.7 L 450.7 25.6 L 449 40.5 L 445.5 39.8 L 443 29.5 L 436.5 31.6 L 429.4 39.9 L 428.9 49.3 L 429.2 59 L 429.6 70.6 L 439.6 72.6 L 439.1 76.1 L 424.6 75.6 L 412.4 76.1 L 412.6 72.6 L 419.2 70.6 L 419.7 60.1 L 419.5 40.9 L 419 30.5 L 411.9 30.8 L 411.4 27.3 L 425.2 24.6 L 430.2 25.7 Z M 473.3 25.7 L 472.6 39.3 L 472 49.3 L 472.3 59 L 472.7 70.6 L 480 72.6 L 479.5 76.1 L 467.7 75.6 L 455.5 76.1 L 455.7 72.6 L 462.3 70.6 L 462.8 60.1 L 462.6 40.9 L 462.1 30.5 L 455 30.8 L 454.5 27.3 L 468.3 24.6 L 473.3 25.7 Z M 82.5 79.7 L 68.6 75 L 57 73.4 L 52.5 78.3 L 51.9 85.7 L 56.4 92.2 L 67.7 93.9 L 79.6 89.4 L 82.5 79.7 Z M 56.6 51.3 L 63.2 54.9 L 71.4 53.8 L 76.7 48.1 L 77.5 38.3 L 73.1 30.8 L 65.8 28.6 L 56.2 32.6 L 53.4 41.4 L 56.6 51.3 Z M 104.7 61.9 L 107.4 70 L 114.9 71.9 L 125 66.1 L 124.6 52.6 L 115.9 52.6 L 108.2 55.7 L 104.7 61.9 Z M 214.6 61.9 L 217.3 70 L 224.8 71.9 L 234.9 66.1 L 234.5 52.6 L 225.8 52.6 L 218.1 55.7 L 214.6 61.9 Z M 372.4 61.9 L 375.1 70 L 382.6 71.9 L 392.7 66.1 L 392.3 52.6 L 383.6 52.6 L 375.9 55.7 L 372.4 61.9 Z M 458.9 8.7 L 461.3 4.8 L 465.9 2.6 L 470.7 4.2 L 472.9 9.6 L 470.1 14 L 465.4 15.9 L 461 13.2 L 458.9 8.7 Z" id="Sleek"></path>      
  </g>
</svg>
