<svg class="logo" viewBox="0 0 47 15" version="1.1" xmlns="http://www.w3.org/2000/svg" xmlns:xlink="http://www.w3.org/1999/xlink">
  <g id="logo" transform="translate(-113.000000, -89.000000)">
      <path fill="#" d="M20.5078125,53.25q0,1.0078125-0.7001953125,1.53515625t-2.0947265625,0.52734375q-0.71484375,0-1.21875-0.0966796875t-0.943359375-0.2841796875l0-1.4765625q0.498046875,0.234375,1.1220703125,0.392578125t1.0986328125,0.158203125q0.97265625,0,0.97265625-0.5625q0-0.2109375-0.12890625-0.3427734375t-0.4453125-0.298828125t-0.84375-0.3896484375q-0.755859375-0.31640625-1.1103515625-0.5859375t-0.515625-0.6181640625t-0.1611328125-0.8583984375q0-0.873046875,0.6767578125-1.3505859375t1.9189453125-0.4775390625q1.18359375,0,2.302734375,0.515625l-0.5390625,1.2890625q-0.4921875-0.2109375-0.919921875-0.345703125t-0.873046875-0.134765625q-0.791015625,0-0.791015625,0.427734375q0,0.240234375,0.2548828125,0.416015625t1.1162109375,0.521484375q0.767578125,0.310546875,1.125,0.580078125t0.52734375,0.62109375t0.169921875,0.837890625z M28.42833984375,48.64453125l0,0.908203125l-1.025390625,0.263671875q0.28125,0.439453125,0.28125,0.984375q0,1.0546875-0.7353515625,1.6435546875t-2.0419921875,0.5888671875l-0.322265625-0.017578125l-0.263671875-0.029296875q-0.275390625,0.2109375-0.275390625,0.46875q0,0.38671875,0.984375,0.38671875l1.11328125,0q1.078125,0,1.6435546875,0.462890625t0.5654296875,1.359375q0,1.1484375-0.9580078125,1.78125t-2.7509765625,0.6328125q-1.37109375,0-2.0947265625-0.4775390625t-0.7236328125-1.3388671875q0-0.591796875,0.369140625-0.990234375t1.083984375-0.568359375q-0.275390625-0.1171875-0.48046875-0.3837890625t-0.205078125-0.5654296875q0-0.375,0.216796875-0.6240234375t0.626953125-0.4892578125q-0.515625-0.22265625-0.8173828125-0.71484375t-0.3017578125-1.16015625q0-1.072265625,0.697265625-1.658203125t1.9921875-0.5859375q0.275390625,0,0.6533203125,0.0498046875t0.4833984375,0.0732421875l2.28515625,0z M23.37169921875,56.12109375q0,0.369140625,0.3544921875,0.580078125t0.9931640625,0.2109375q0.9609375,0,1.505859375-0.263671875t0.544921875-0.720703125q0-0.369140625-0.322265625-0.509765625t-0.99609375-0.140625l-0.92578125,0q-0.4921875,0-0.8232421875,0.2314453125t-0.3310546875,0.6123046875z M24.02208984375,50.7890625q0,0.533203125,0.2431640625,0.84375t0.7412109375,0.310546875q0.50390625,0,0.73828125-0.310546875t0.234375-0.84375q0-1.18359375-0.97265625-1.18359375q-0.984375,0-0.984375,1.18359375z M34.4914453125,55.1953125l-0.345703125-0.890625l-0.046875,0q-0.451171875,0.568359375-0.9287109375,0.7880859375t-1.2451171875,0.2197265625q-0.943359375,0-1.4853515625-0.5390625t-0.5419921875-1.53515625q0-1.04296875,0.7294921875-1.5380859375t2.2001953125-0.5478515625l1.13671875-0.03515625l0-0.287109375q0-0.99609375-1.01953125-0.99609375q-0.78515625,0-1.845703125,0.474609375l-0.591796875-1.20703125q1.130859375-0.591796875,2.5078125-0.591796875q1.318359375,0,2.021484375,0.57421875t0.703125,1.74609375l0,4.365234375l-1.248046875,0z M33.9641015625,52.16015625l-0.69140625,0.0234375q-0.779296875,0.0234375-1.16015625,0.28125t-0.380859375,0.78515625q0,0.755859375,0.8671875,0.755859375q0.62109375,0,0.9931640625-0.357421875t0.3720703125-0.94921875l0-0.5390625z M44.45103515625,55.1953125l-1.787109375,0l0-3.826171875q0-0.708984375-0.251953125-1.0634765625t-0.802734375-0.3544921875q-0.75,0-1.083984375,0.5009765625t-0.333984375,1.6611328125l0,3.08203125l-1.787109375,0l0-6.55078125l1.365234375,0l0.240234375,0.837890625l0.099609375,0q0.298828125-0.474609375,0.8232421875-0.7177734375t1.1923828125-0.2431640625q1.142578125,0,1.734375,0.6181640625t0.591796875,1.7841796875l0,4.271484375z M51.275859375,55.1953125l-0.345703125-0.890625l-0.046875,0q-0.451171875,0.568359375-0.9287109375,0.7880859375t-1.2451171875,0.2197265625q-0.943359375,0-1.4853515625-0.5390625t-0.5419921875-1.53515625q0-1.04296875,0.7294921875-1.5380859375t2.2001953125-0.5478515625l1.13671875-0.03515625l0-0.287109375q0-0.99609375-1.01953125-0.99609375q-0.78515625,0-1.845703125,0.474609375l-0.591796875-1.20703125q1.130859375-0.591796875,2.5078125-0.591796875q1.318359375,0,2.021484375,0.57421875t0.703125,1.74609375l0,4.365234375l-1.248046875,0z M50.748515625,52.16015625l-0.69140625,0.0234375q-0.779296875,0.0234375-1.16015625,0.28125t-0.380859375,0.78515625q0,0.755859375,0.8671875,0.755859375q0.62109375,0,0.9931640625-0.357421875t0.3720703125-0.94921875l0-0.5390625z M57.84873046875,55.3125q-3.05859375,0-3.05859375-3.357421875q0-1.669921875,0.83203125-2.5517578125t2.384765625-0.8818359375q1.13671875,0,2.0390625,0.4453125l-0.52734375,1.3828125q-0.421875-0.169921875-0.78515625-0.2783203125t-0.7265625-0.1083984375q-1.39453125,0-1.39453125,1.98046875q0,1.921875,1.39453125,1.921875q0.515625,0,0.955078125-0.1376953125t0.87890625-0.4306640625l0,1.529296875q-0.43359375,0.275390625-0.8759765625,0.380859375t-1.1162109375,0.10546875z M68.2301953125,55.1953125l-1.787109375,0l0-3.826171875q0-1.41796875-1.0546875-1.41796875q-0.75,0-1.083984375,0.509765625t-0.333984375,1.65234375l0,3.08203125l-1.787109375,0l0-9.1171875l1.787109375,0l0,1.857421875q0,0.216796875-0.041015625,1.01953125l-0.041015625,0.52734375l0.09375,0q0.59765625-0.9609375,1.8984375-0.9609375q1.154296875,0,1.751953125,0.62109375t0.59765625,1.78125l0,4.271484375z M75.05501953125,55.1953125l-0.345703125-0.890625l-0.046875,0q-0.451171875,0.568359375-0.9287109375,0.7880859375t-1.2451171875,0.2197265625q-0.943359375,0-1.4853515625-0.5390625t-0.5419921875-1.53515625q0-1.04296875,0.7294921875-1.5380859375t2.2001953125-0.5478515625l1.13671875-0.03515625l0-0.287109375q0-0.99609375-1.01953125-0.99609375q-0.78515625,0-1.845703125,0.474609375l-0.591796875-1.20703125q1.130859375-0.591796875,2.5078125-0.591796875q1.318359375,0,2.021484375,0.57421875t0.703125,1.74609375l0,4.365234375l-1.248046875,0z M74.52767578125,52.16015625l-0.69140625,0.0234375q-0.779296875,0.0234375-1.16015625,0.28125t-0.380859375,0.78515625q0,0.755859375,0.8671875,0.755859375q0.62109375,0,0.9931640625-0.357421875t0.3720703125-0.94921875l0-0.5390625z M82.623984375,48.521484375q0.36328125,0,0.603515625,0.052734375l-0.134765625,1.67578125q-0.216796875-0.05859375-0.52734375-0.05859375q-0.85546875,0-1.3330078125,0.439453125t-0.4775390625,1.23046875l0,3.333984375l-1.787109375,0l0-6.55078125l1.353515625,0l0.263671875,1.1015625l0.087890625,0q0.3046875-0.55078125,0.8232421875-0.8876953125t1.1279296875-0.3369140625z M85.16560546875,46.951171875q0-0.873046875,0.97265625-0.873046875t0.97265625,0.873046875q0,0.416015625-0.2431640625,0.6474609375t-0.7294921875,0.2314453125q-0.97265625,0-0.97265625-0.87890625z M87.02888671875,55.1953125l-1.787109375,0l0-6.55078125l1.787109375,0l0,6.55078125z" id="Sleek"></path>      
  </g>
</svg>
